<svg xmlns="http://www.w3.org/2000/svg" width="15" height="13" viewBox="0 0 15 13">
    <path fill="#F0E85F" fill-rule="nonzero" d="M14.742 10.844L8.742.73A1.46 1.46 0 0 0 7.47.016 1.46 1.46 0 0 0 6.2.73L.199 10.844a1.38 1.38 0 0 0 0 1.427c.265.447.74.714 1.27.714h12.002a1.46 1.46 0 0 0 1.271-.714 1.38 1.38 0 0 0 0-1.427zm-7.272.496a.944.944 0 0 1-.955-.93c0-.512.429-.929.955-.929.527 0 .956.417.956.93 0 .512-.429.929-.956.929zm.962-3.973a.95.95 0 0 1-.962.936.95.95 0 0 1-.961-.936V3.073a.45.45 0 0 1 .455-.443h1.013a.45.45 0 0 1 .455.443v4.294z"/>
</svg>
