<svg xmlns="http://www.w3.org/2000/svg" xmlns:xlink="http://www.w3.org/1999/xlink" width="42" height="46" viewBox="0 0 42 46">
    <defs>
        <circle id="b" cx="17" cy="17" r="17"/>
        <filter id="a" width="141.2%" height="152.9%" x="-20.6%" y="-26.5%" filterUnits="objectBoundingBox">
            <feOffset dy="2" in="SourceAlpha" result="shadowOffsetOuter1"/>
            <feGaussianBlur in="shadowOffsetOuter1" result="shadowBlurOuter1" stdDeviation="2"/>
            <feColorMatrix in="shadowBlurOuter1" result="shadowMatrixOuter1" values="0 0 0 0 0.549019608 0 0 0 0 0.549019608 0 0 0 0 0.549019608 0 0 0 0.3 0"/>
            <feOffset dy="-2" in="SourceAlpha" result="shadowOffsetOuter2"/>
            <feGaussianBlur in="shadowOffsetOuter2" result="shadowBlurOuter2" stdDeviation="2"/>
            <feColorMatrix in="shadowBlurOuter2" result="shadowMatrixOuter2" values="0 0 0 0 0.549019608 0 0 0 0 0.549019608 0 0 0 0 0.549019608 0 0 0 0.2 0"/>
            <feMerge>
                <feMergeNode in="shadowMatrixOuter1"/>
                <feMergeNode in="shadowMatrixOuter2"/>
            </feMerge>
        </filter>
    </defs>
    <g fill="none" fill-rule="evenodd">
        <g transform="translate(4 6)">
            <use fill="#000" filter="url(#a)" xlink:href="#b"/>
            <use fill="#F0E85F" xlink:href="#b"/>
        </g>
        <path fill="#DC4B66" fill-rule="nonzero" d="M30 18.538a7.305 7.305 0 0 1-2.002.517 3.34 3.34 0 0 0 1.532-1.815 7.301 7.301 0 0 1-2.216.797A3.582 3.582 0 0 0 24.77 17c-1.926 0-3.487 1.47-3.487 3.282 0 .257.03.508.09.748-2.898-.137-5.468-1.444-7.188-3.43a3.114 3.114 0 0 0-.471 1.65c0 1.14.616 2.144 1.55 2.732a3.654 3.654 0 0 1-1.579-.412v.041c0 1.59 1.203 2.918 2.797 3.22a3.74 3.74 0 0 1-.919.115c-.225 0-.443-.021-.656-.061.444 1.305 1.731 2.254 3.257 2.28a7.278 7.278 0 0 1-4.331 1.403c-.282 0-.559-.016-.832-.045A10.307 10.307 0 0 0 18.346 30c6.415 0 9.921-5.002 9.921-9.34l-.011-.426A6.755 6.755 0 0 0 30 18.538z"/>
    </g>
</svg>
